<svg id="Layer_1" data-name="Layer 1" xmlns="http://www.w3.org/2000/svg" viewBox="0 0 128 128"><defs><style>.cls-1{fill:#231f20;}.cls-2{fill:none;stroke:#231f20;stroke-miterlimit:10;}</style></defs><title>Artboard 1</title><path class="cls-1" d="M104.64,42a18.77,18.77,0,0,1-15.51,6.38l-33.23,38A18.76,18.76,0,0,1,38.18,109c3-5,3.08-11.61-2.59-16.57s-12.21-4-16.77-.36a18.77,18.77,0,0,1,20-20.58l33.24-38A18.77,18.77,0,0,1,89.82,10.85c-3,5-3.08,11.62,2.59,16.58s12.21,4,16.77.36A18.67,18.67,0,0,1,104.64,42Z"/><path class="cls-2" d="M104.64,42a18.77,18.77,0,0,1-15.51,6.38l-33.23,38A18.76,18.76,0,0,1,38.18,109c3-5,3.08-11.61-2.59-16.57s-12.21-4-16.77-.36a18.77,18.77,0,0,1,20-20.58l33.24-38A18.77,18.77,0,0,1,89.82,10.85c-3,5-3.08,11.62,2.59,16.58s12.21,4,16.77.36A18.67,18.67,0,0,1,104.64,42Z"/></svg>